<?xml version="1.0" encoding="UTF-8"?>
<svg width="500" height="500" viewBox="0 0 500 500" xmlns="http://www.w3.org/2000/svg">
  <defs>
    <linearGradient id="chartGradient" x1="0%" y1="0%" x2="0%" y2="100%">
      <stop offset="0%" style="stop-color:rgba(0, 245, 160, 0.3)"/>
      <stop offset="100%" style="stop-color:rgba(0, 245, 160, 0)"/>
    </linearGradient>
    <clipPath id="chartClip">
      <path d="M50 450 L100 400 L150 420 L200 350 L250 380 L300 300 L350 320 L400 250 L450 270" />
    </clipPath>
  </defs>
  
  <!-- Background Grid -->
  <g stroke="rgba(0, 245, 160, 0.1)" stroke-width="1">
    <line x1="50" y1="50" x2="50" y2="450"/>
    <line x1="150" y1="50" x2="150" y2="450"/>
    <line x1="250" y1="50" x2="250" y2="450"/>
    <line x1="350" y1="50" x2="350" y2="450"/>
    <line x1="450" y1="50" x2="450" y2="450"/>
    
    <line x1="50" y1="50" x2="450" y2="50"/>
    <line x1="50" y1="150" x2="450" y2="150"/>
    <line x1="50" y1="250" x2="450" y2="250"/>
    <line x1="50" y1="350" x2="450" y2="350"/>
    <line x1="50" y1="450" x2="450" y2="450"/>
  </g>

  <!-- Chart Line -->
  <path 
    d="M50 450 L100 400 L150 420 L200 350 L250 380 L300 300 L350 320 L400 250 L450 270" 
    fill="none" 
    stroke="url(#chartGradient)" 
    stroke-width="3"
  >
    <animate 
      attributeName="d" 
      dur="3s"
      repeatCount="indefinite"
      values="
        M50 450 L100 400 L150 420 L200 350 L250 380 L300 300 L350 320 L400 250 L450 270;
        M50 420 L100 380 L150 400 L200 320 L250 350 L300 270 L350 290 L400 220 L450 240;
        M50 450 L100 400 L150 420 L200 350 L250 380 L300 300 L350 320 L400 250 L450 270
      "
    />
  </path>

  <!-- Area under the chart -->
  <path 
    d="M50 450 L100 400 L150 420 L200 350 L250 380 L300 300 L350 320 L400 250 L450 270 L450 450 Z" 
    fill="url(#chartGradient)"
    opacity="0.3"
  >
    <animate 
      attributeName="d" 
      dur="3s"
      repeatCount="indefinite"
      values="
        M50 450 L100 400 L150 420 L200 350 L250 380 L300 300 L350 320 L400 250 L450 270 L450 450 Z;
        M50 420 L100 380 L150 400 L200 320 L250 350 L300 270 L350 290 L400 220 L450 240 L450 450 Z;
        M50 450 L100 400 L150 420 L200 350 L250 380 L300 300 L350 320 L400 250 L450 270 L450 450 Z
      "
    />
  </path>

  <!-- Data Points -->
  <g fill="#00F5A0">
    <circle cx="50" cy="450" r="4">
      <animate 
        attributeName="cy" 
        dur="3s"
        repeatCount="indefinite"
        values="450;420;450"
      />
    </circle>
    <circle cx="100" cy="400" r="4">
      <animate 
        attributeName="cy" 
        dur="3s"
        repeatCount="indefinite"
        values="400;380;400"
      />
    </circle>
    <circle cx="150" cy="420" r="4">
      <animate 
        attributeName="cy" 
        dur="3s"
        repeatCount="indefinite"
        values="420;400;420"
      />
    </circle>
    <circle cx="200" cy="350" r="4">
      <animate 
        attributeName="cy" 
        dur="3s"
        repeatCount="indefinite"
        values="350;320;350"
      />
    </circle>
    <circle cx="250" cy="380" r="4">
      <animate 
        attributeName="cy" 
        dur="3s"
        repeatCount="indefinite"
        values="380;350;380"
      />
    </circle>
    <circle cx="300" cy="300" r="4">
      <animate 
        attributeName="cy" 
        dur="3s"
        repeatCount="indefinite"
        values="300;270;300"
      />
    </circle>
    <circle cx="350" cy="320" r="4">
      <animate 
        attributeName="cy" 
        dur="3s"
        repeatCount="indefinite"
        values="320;290;320"
      />
    </circle>
    <circle cx="400" cy="250" r="4">
      <animate 
        attributeName="cy" 
        dur="3s"
        repeatCount="indefinite"
        values="250;220;250"
      />
    </circle>
    <circle cx="450" cy="270" r="4">
      <animate 
        attributeName="cy" 
        dur="3s"
        repeatCount="indefinite"
        values="270;240;270"
      />
    </circle>
  </g>
</svg> 